HIERARCHY
ROOT ROOT
{
	OFFSET 0.000000 56.020000 -5.659234
	CHANNELS 6 Xposition Yposition Zposition Xrotation Yrotation Zrotation 
	JOINT C_spine0001_bind_JNT
	{
		OFFSET 0.000000 1.618999 0.000000
		CHANNELS 3 Xrotation Yrotation Zrotation
		JOINT C_spine0002_bind_JNT
		{
			OFFSET 0.000000 4.942001 0.000001
			CHANNELS 3 Xrotation Yrotation Zrotation
			JOINT C_spine0003_bind_JNT
			{
				OFFSET 0.000000 4.942001 -0.000000
				CHANNELS 3 Xrotation Yrotation Zrotation
				JOINT C_neck0001_bind_JNT
				{
					OFFSET 0.000000 17.026009 -0.000000
					CHANNELS 3 Xrotation Yrotation Zrotation
					JOINT C_neck0002_bind_JNT
					{
						OFFSET 0.000000 3.249985 0.000000
						CHANNELS 3 Xrotation Yrotation Zrotation
						JOINT C_head_bind_JNT
						{
							OFFSET 0.000000 5.278008 0.000000
							CHANNELS 3 Xrotation Yrotation Zrotation
							End Site
							{
								OFFSET 0.000000 0.000000 0.000000
							}
						}
					}
				}
				JOINT L_clavicle_bind_JNT
				{
					OFFSET 4.590000 12.067001 0.834000
					CHANNELS 3 Xrotation Yrotation Zrotation
					JOINT L_armUpper0001_bind_JNT
					{
						OFFSET 7.812635 0.512001 -3.452945
						CHANNELS 3 Xrotation Yrotation Zrotation
						JOINT L_armLower0001_bind_JNT
						{
							OFFSET 15.265892 -6.552116 -0.058157
							CHANNELS 3 Xrotation Yrotation Zrotation
							JOINT L_hand0001_bind_JNT
							{
								OFFSET 14.747667 -6.369995 5.049225
								CHANNELS 3 Xrotation Yrotation Zrotation
								End Site
								{
									OFFSET 0.000000 0.000000 0.000000
								}
							}
						}
					}
				}
				JOINT R_clavicle_bind_JNT
				{
					OFFSET -4.590000 12.067001 0.834000
					CHANNELS 3 Xrotation Yrotation Zrotation
					JOINT R_armUpper0001_bind_JNT
					{
						OFFSET -7.812635 0.512001 -3.452945
						CHANNELS 3 Xrotation Yrotation Zrotation
						JOINT R_armLower0001_bind_JNT
						{
							OFFSET -15.265890 -6.552124 -0.058160
							CHANNELS 3 Xrotation Yrotation Zrotation
							JOINT R_hand0001_bind_JNT
							{
								OFFSET -14.746784 -6.369629 5.048937
								CHANNELS 3 Xrotation Yrotation Zrotation
								End Site
								{
									OFFSET 0.000000 0.000000 0.000000
								}
							}
						}
					}
				}
			}
		}
	}
	JOINT C_pelvis0001_bind_JNT
	{
		OFFSET -0.000000 0.000000 0.000000
		CHANNELS 3 Xrotation Yrotation Zrotation
		JOINT L_legUpper0001_bind_JNT
		{
			OFFSET 6.599999 -6.027000 0.539000
			CHANNELS 3 Xrotation Yrotation Zrotation
			JOINT L_legLower0001_bind_JNT
			{
				OFFSET -0.140713 -19.187443 0.040261
				CHANNELS 3 Xrotation Yrotation Zrotation
				JOINT L_foot0001_bind_JNT
				{
					OFFSET -0.132215 -18.028637 -1.138370
					CHANNELS 3 Xrotation Yrotation Zrotation
					JOINT L_foot0002_bind_JNT
					{
						OFFSET 0.007014 -4.693133 9.886524
						CHANNELS 3 Xrotation Yrotation Zrotation
						End Site
						{
							OFFSET 0.000000 0.000000 0.000000
						}
					}
				}
			}
		}
		JOINT R_legUpper0001_bind_JNT
		{
			OFFSET -6.599999 -6.027000 0.539000
			CHANNELS 3 Xrotation Yrotation Zrotation
			JOINT R_legLower0001_bind_JNT
			{
				OFFSET 0.140710 -19.187164 0.040550
				CHANNELS 3 Xrotation Yrotation Zrotation
				JOINT R_foot0001_bind_JNT
				{
					OFFSET 0.132215 -18.028633 -1.138362
					CHANNELS 3 Xrotation Yrotation Zrotation
					JOINT R_foot0002_bind_JNT
					{
						OFFSET -0.007014 -4.693128 9.886505
						CHANNELS 3 Xrotation Yrotation Zrotation
						End Site
						{
							OFFSET 0.000000 0.000000 0.000000
						}
					}
				}
			}
		}
	}
}
MOTION
Frames: 6
Frame Time: 0.033333
17.083321 46.512993 26.758690 0.051610 -8.957734 -0.025836 9.572210 -2.317659 -18.589777 -6.633990 1.469558 -1.321994 1.661268 2.522780 -3.103482 23.230574 0.459403 4.494065 -0.211373 0.055096 -0.421770 6.834951 0.730717 8.853230 11.883996 10.958793 22.736645 -9.781453 5.966403 -68.555420 -12.791301 -1.337553 -2.050075 1.074391 -13.138539 -16.644705 9.882031 -5.796663 -20.998756 -2.620854 -8.903709 72.835846 0.707249 0.343400 2.558289 3.895546 9.970440 21.040115 11.958561 -6.634341 -13.443005 -33.818539 7.005993 10.392126 34.523819 -2.243654 0.578500 -19.920435 7.416640 0.898979 -5.825938 -0.357026 3.087544 -6.342082 -13.328507 -12.685388 31.682777 -4.724442 1.040554 6.915111 -6.466671 7.239191 -9.358168 0.658953 12.371623
17.416265 46.710876 26.808220 0.034147 -8.584792 -0.033760 9.687822 -2.672483 -17.795946 -6.420374 1.610860 -1.274257 1.648310 2.658299 -2.833420 23.231253 0.227016 4.110788 -0.161263 0.223781 -0.544535 6.521975 0.855394 7.881248 12.095628 11.037183 22.488602 -9.218574 6.193268 -68.818703 -13.497665 -3.019627 -2.874466 1.487810 -13.345796 -16.521061 9.729760 -5.998666 -21.160507 -2.479283 -8.685609 72.523865 0.587961 0.916388 2.959454 3.545865 9.990496 20.894674 11.555531 -6.720696 -12.659530 -34.819859 6.850823 9.678164 36.867695 -1.815306 -0.045053 -18.501093 7.186971 -1.360301 -7.465211 -1.443961 6.252428 -5.490521 -13.885357 -11.414001 31.467428 -4.812109 1.041829 6.137181 -5.790230 7.998821 -12.023261 -0.044141 12.652628
17.908079 46.757442 26.915197 0.036795 -8.477573 -0.044517 9.961212 -2.578637 -17.168451 -6.249292 1.666419 -1.072604 1.995380 2.743667 -2.848966 22.787397 0.268179 3.659599 -0.339644 0.239158 -0.518723 6.479623 0.658309 7.206978 11.686109 11.417763 22.030472 -8.516020 6.598276 -69.204330 -14.050615 -4.736274 -2.358783 1.144238 -13.520433 -17.549047 9.890998 -5.986804 -20.748396 -2.595506 -8.607974 72.196480 0.442719 0.792189 3.149570 3.220575 10.345008 21.358234 11.818549 -6.692155 -12.231446 -37.505856 6.518403 10.124707 40.292233 -1.297076 -1.268245 -14.532154 5.322562 -6.137695 -10.928173 -3.503983 10.866529 -4.946197 -13.916943 -10.623698 31.129831 -4.804883 1.108035 4.962939 -4.030510 9.747583 -16.291065 -0.596669 12.005881
18.235384 46.701775 26.736387 0.047951 -8.363191 -0.030011 10.407903 -2.236942 -16.278130 -6.333852 1.731644 -1.141357 2.661928 2.713230 -2.932045 22.609722 0.136634 3.529502 -0.377324 0.416994 -0.679503 5.766341 0.059139 6.980221 11.643932 11.649213 21.062841 -7.800880 7.847379 -68.828697 -14.700647 -7.138907 -2.893842 0.623690 -13.136856 -18.058430 9.538014 -5.731856 -20.945930 -2.000224 -8.433685 72.366798 -0.087110 0.835741 3.483873 3.367498 10.025278 21.847435 11.571619 -6.367593 -11.733960 -41.728615 6.277058 12.393876 46.037777 -0.951640 -2.839540 -8.636501 0.277249 -12.964719 -13.189034 -4.616289 14.117175 -3.565465 -14.912063 -9.166017 29.768620 -4.419968 0.920357 2.725817 -1.324289 10.761622 -21.649561 -1.395970 10.033242
18.505751 46.458900 26.596037 0.038527 -7.675879 -0.035512 11.302079 -2.167676 -15.460306 -6.256113 1.787911 -1.139085 2.581329 2.897756 -2.966764 22.381641 -0.082939 3.163257 -0.182362 0.029205 -0.641358 4.976603 -0.166100 6.343071 11.551407 11.292389 20.330042 -7.387488 8.638041 -68.353127 -15.850254 -7.422511 -3.679184 0.600212 -13.222081 -17.373857 10.035292 -5.768166 -20.816990 -2.238213 -8.488167 72.431297 -0.518894 -0.915888 3.745878 2.705780 10.047749 22.406204 11.531702 -6.211845 -11.242936 -45.366699 5.661265 14.633398 50.270370 -0.966511 -4.731807 -4.003001 -4.583390 -17.361126 -12.469928 -4.290146 14.724495 -1.672932 -15.334367 -7.113942 27.931786 -3.408577 0.911807 -1.173943 -0.207257 11.269197 -23.353071 -1.414698 7.564643
18.512739 46.191078 26.309193 0.045394 -8.427923 -0.024359 12.061761 -0.456549 -14.821820 -6.226224 1.854956 -1.387912 3.275204 2.791957 -3.495081 21.525665 -0.136303 3.205023 -0.152633 0.201878 -0.626141 4.497032 -0.666159 6.152493 10.842950 11.159774 20.478497 -6.617447 9.729488 -67.882538 -16.500650 -7.741231 -4.237812 -0.375053 -12.981335 -17.468386 10.075705 -5.093543 -20.719681 -1.524742 -8.908707 73.143936 -1.108521 -2.050458 4.199788 1.927460 10.220404 22.359715 11.874057 -4.182569 -10.106884 -49.142815 5.337578 15.129850 53.502060 -1.558679 -5.428174 -4.554620 -4.720230 -18.211761 -8.080198 -3.283396 11.610384 -0.301445 -15.054091 -6.096334 24.746712 -2.963389 0.362288 -4.415193 -0.352250 12.456443 -22.074785 -1.674221 5.862835
